<?xml version="1.0" encoding="utf-8"?>
<!-- Generator: $$$/GeneralStr/196=Adobe Illustrator 27.6.0, SVG Export Plug-In . SVG Version: 6.00 Build 0)  -->
<svg version="1.1" id="Ebene_1" xmlns="http://www.w3.org/2000/svg" xmlns:xlink="http://www.w3.org/1999/xlink" x="0px" y="0px"
	 viewBox="0 0 400 50" style="enable-background:new 0 0 400 50;" xml:space="preserve">
<style type="text/css">
	.st0{fill:#ED6845;}
	.st1{fill:#FFFFFF;}
</style>
<g>
	<path class="st0" d="M71.3,15.4h-17l-1.5,8.1h17c0.1,0,0.2-0.1,0.2-0.2L71.3,15.4C71.4,15.5,71.4,15.4,71.3,15.4z"/>
	<path class="st0" d="M5.5,2.5v44h77.3l40.7-44H5.5z M15.4,41l-5-33h7.8l3.9,25.6h1.8L36.7,8h7.8L28,41H15.4z M78.8,15.6l-1.4,7.8
		c-0.7,4.2-4.7,7.6-8.9,7.6h-1.6l9.5,10H66.1l-9.4-10h-5.1l-1.8,10h-7.4l5.8-33h24.5C76.8,8,79.6,11.4,78.8,15.6z"/>
</g>
<g>
	<path class="st1" d="M120.5,46.4h-6l3.6-20.7h-2.5L96.8,46.4h-7.4l24.3-26.7h11.5L120.5,46.4z"/>
	<path class="st1" d="M153.2,21.5c1,1.1,1.3,2.7,1,4.3l-2.6,14.4c-0.6,3.4-3.8,6.1-7.2,6.1h-20.7l4.7-26.7h20.8
		C150.8,19.7,152.2,20.3,153.2,21.5z M148.2,25.8c0,0,0,0,0-0.1c0,0-0.1,0-0.1,0h-14.7l-2.6,14.7h14.7c0.1,0,0.1,0,0.2-0.1
		L148.2,25.8z"/>
	<path class="st1" d="M160.2,46.4l-4.1-26.7h6.3l3.1,20.7h1.5l10.4-20.7h6.3l-13.4,26.7H160.2z"/>
	<path class="st1" d="M191.6,25.7l-0.7,4.3h14.5l-1.1,6h-14.5l-0.8,4.4h19.2l-1,6h-25.3l4.7-26.7h24.4l-1.1,6H191.6z"/>
	<path class="st1" d="M215.6,46.4h-6l4.7-26.7h6.9l12.1,18.4l3.3-18.4h6l-4.7,26.7h-6.9L218.8,28L215.6,46.4z"/>
	<path class="st1" d="M249.5,46.4l3.7-20.6h-9.9l1-6H270l-1.1,6h-9.9l-3.6,20.6H249.5z"/>
	<path class="st1" d="M292.4,44.6c-1.4,1.2-3,1.8-4.7,1.8l-14.4,0c-3.4,0-5.6-2.8-5.1-6.1l3.6-20.5h6l-3.6,20.5c0,0.1,0,0.1,0.1,0.1
		h14.4c0,0,0.1,0,0.1,0c0.1,0,0.1-0.1,0.1-0.1l3.6-20.5h6L295,40.3C294.7,41.9,293.8,43.4,292.4,44.6z"/>
	<path class="st1" d="M316.7,38.3l7.7,8.1H316l-7.6-8.1h-4.1l-1.4,8.1h-6l4.7-26.7h19.8c3.4,0,5.6,2.8,5.1,6.1l-1.1,6.3
		c-0.6,3.4-3.8,6.2-7.2,6.2H316.7z M305.2,32.3H319c0.1,0,0.1-0.1,0.2-0.1l1.1-6.3c0-0.1,0-0.1-0.1-0.1h-13.8L305.2,32.3z"/>
	<path class="st1" d="M335.3,25.7l-0.7,4.3h14.5l-1.1,6h-14.5l-0.8,4.4H352l-1,6h-25.3l4.7-26.7h24.4l-1.1,6H335.3z"/>
</g>
<g>
	<path class="st1" d="M187.3,6.4l-0.4,2.3h7.9l-0.6,3.3h-7.9l-0.4,2.4h10.5l-0.6,3.3h-13.8l2.6-14.6H198l-0.6,3.3H187.3z"/>
	<path class="st1" d="M211.9,12.1l-0.4,2.2c-0.3,1.9-2.1,3.4-4,3.4h-10.2l0.6-3.3h10.2c0,0,0.1,0,0.1-0.1l0.4-2.2c0,0,0-0.1-0.1-0.1
		h-6.9c-1.9,0-3.1-1.5-2.8-3.4l0.4-2.2c0.3-1.8,2.1-3.4,3.9-3.4h9.7l-0.6,3.3h-9.7c0,0-0.1,0-0.1,0.1l-0.4,2.2c0,0,0,0.1,0.1,0.1
		h6.9C211,8.8,212.3,10.3,211.9,12.1z"/>
	<path class="st1" d="M218.4,3.1h10.9l-0.6,3.3h-10.9c0,0-0.1,0-0.1,0.1l-1.4,7.9c0,0,0,0.1,0.1,0.1h10.9l-0.6,3.3h-10.9
		c-1.8,0-3.1-1.5-2.8-3.3l1.4-7.9C214.8,4.6,216.5,3.1,218.4,3.1z"/>
	<path class="st1" d="M244.9,17.7h-3.3l2-11.3h-1.3L232,17.7h-4.1l13.3-14.6h6.3L244.9,17.7z"/>
	<path class="st1" d="M258.3,13.3h-7.5l-0.8,4.4h-3.3l2.6-14.6h10.8c1.8,0,3.1,1.5,2.8,3.3l-0.6,3.4
		C261.9,11.8,260.1,13.3,258.3,13.3z M251.3,10h7.5c0,0,0.1,0,0.1-0.1l0.6-3.4c0,0,0-0.1-0.1-0.1H252L251.3,10z"/>
	<path class="st1" d="M267.8,6.4l-0.4,2.3h7.9l-0.6,3.3h-7.9l-0.4,2.4h10.5l-0.6,3.3h-13.8l2.6-14.6h13.4l-0.6,3.3H267.8z"/>
	<path class="st1" d="M294.5,13.3l4.2,4.4h-4.6l-4.2-4.4h-2.3l-0.8,4.4h-3.3l2.6-14.6H297c1.8,0,3.1,1.5,2.8,3.3l-0.6,3.4
		c-0.3,1.9-2.1,3.4-3.9,3.4H294.5z M288.3,10h7.5c0,0,0.1,0,0.1-0.1l0.6-3.4c0,0,0-0.1-0.1-0.1h-7.5L288.3,10z"/>
	<path class="st1" d="M314.8,3.1c0.9,0,1.7,0.3,2.2,1c0.5,0.6,0.7,1.5,0.6,2.4l-1.4,7.9c-0.3,1.8-2.1,3.3-4,3.3h-9.5
		c-1.9,0-3.1-1.5-2.8-3.3l1.4-7.9c0.3-1.9,2.1-3.4,3.9-3.4H314.8z M314.3,6.4C314.2,6.4,314.2,6.4,314.3,6.4l-9.6,0
		c0,0-0.1,0-0.1,0.1l-1.4,7.9c0,0,0,0.1,0.1,0.1h9.5c0,0,0.1,0,0.1-0.1L314.3,6.4C314.3,6.5,314.3,6.5,314.3,6.4z"/>
	<path class="st1" d="M332.6,3.1c0.9,0,1.7,0.3,2.2,1c0.5,0.6,0.7,1.5,0.6,2.4l-1.4,7.9c-0.3,1.8-2.1,3.3-4,3.3h-9.5
		c-1.9,0-3.1-1.5-2.8-3.3l1.4-7.9c0.3-1.9,2.1-3.4,3.9-3.4H332.6z M332,6.4C332,6.4,332,6.4,332,6.4l-9.6,0c0,0-0.1,0-0.1,0.1
		l-1.4,7.9c0,0,0,0.1,0.1,0.1h9.5c0,0,0.1,0,0.1-0.1L332,6.4C332,6.5,332.1,6.5,332,6.4z"/>
	<path class="st1" d="M351.6,17.7l1.5-8.4l-6.3,8.4H343l-3.3-8.4l-1.5,8.4H335l2.6-14.6h3.5l4.4,11.3l8.4-11.3h3.5l-2.6,14.6H351.6z
		"/>
</g>
</svg>
