<?xml version="1.0" encoding="utf-8"?>
<!-- Generator: $$$/GeneralStr/196=Adobe Illustrator 27.6.0, SVG Export Plug-In . SVG Version: 6.00 Build 0)  -->
<svg version="1.1" id="Ebene_1" xmlns="http://www.w3.org/2000/svg" xmlns:xlink="http://www.w3.org/1999/xlink" x="0px" y="0px"
	 viewBox="0 0 400 50" style="enable-background:new 0 0 400 50;" xml:space="preserve">
<style type="text/css">
	.st0{fill:#DEDC00;}
	.st1{fill:#FFFFFF;}
</style>
<g>
	<path class="st0" d="M71.3,15.4h-17l-1.5,8.1h17c0.1,0,0.2-0.1,0.2-0.2l1.4-7.8C71.4,15.5,71.4,15.4,71.3,15.4z"/>
	<path class="st0" d="M5.5,2.5v44h77.3l40.7-44H5.5z M15.4,41l-5-33h7.8l3.9,25.6h1.8L36.7,8h7.8L28,41H15.4z M78.8,15.6l-1.4,7.8
		c-0.7,4.2-4.7,7.6-8.9,7.6h-1.6l9.5,10H66.1l-9.4-10h-5.1l-1.8,10h-7.4l5.8-33h24.5C76.8,8,79.6,11.4,78.8,15.6z"/>
</g>
<g>
	<path class="st1" d="M140.9,46.3H131l6-34.2h-4.1l-31.1,34.2H89.6l40.1-44h19L140.9,46.3z"/>
	<path class="st1" d="M179.1,32.9l12.7,13.4H178l-12.6-13.4h-6.8l-2.4,13.4h-9.9l7.8-44h32.7c5.6,0,9.3,4.5,8.4,10.1l-1.9,10.4
		c-1,5.6-6.3,10.2-11.9,10.2H179.1z M160.2,23H183c0.1,0,0.2-0.1,0.3-0.2l1.8-10.4c0-0.1-0.1-0.2-0.2-0.2h-22.8L160.2,23z"/>
	<path class="st1" d="M210,12.1l-1.2,7.1h24l-1.8,9.9h-24l-1.3,7.2h31.8l-1.7,9.9H194l7.8-44h40.3l-1.8,9.9H210z"/>
	<path class="st1" d="M249.6,46.3h-9.9l7.8-44.1h11.4l20,30.4l5.4-30.4h9.9l-7.8,44.1h-11.4l-20-30.4L249.6,46.3z"/>
	<path class="st1" d="M341.2,46.3h-9.9l6-34.2h-4.1l-31.1,34.2h-12.3l40.1-44h19L341.2,46.3z"/>
</g>
</svg>
